HIERARCHY
ROOT Hips
{
	OFFSET 0.000000 83.214638 0.000000
	CHANNELS 6 Xposition Yposition Zposition Xrotation Yrotation Zrotation
	JOINT Pelvis
	{
		OFFSET 0.000000 0.000000 0.000000
		CHANNELS 3 Xrotation Yrotation Zrotation
		JOINT LeftUpLeg
		{
			OFFSET 8.479700 -4.795502 -0.379100
			CHANNELS 3 Xrotation Yrotation Zrotation
			JOINT LeftLeg
			{
				OFFSET 0.024144 -32.555107 0.112900
				CHANNELS 3 Xrotation Yrotation Zrotation
				JOINT LeftFoot
				{
					OFFSET -0.024144 -32.638630 -3.012600
					CHANNELS 3 Xrotation Yrotation Zrotation
					JOINT LeftToeBase
					{
						OFFSET 0.970200 -13.225400 11.864200
						CHANNELS 3 Xrotation Yrotation Zrotation
						End Site
						{
							OFFSET 0.000000 12.319262 0.000000
						}
					}
					JOINT LFootTongue
					{
						OFFSET 1.142400 -1.059800 6.665200
						CHANNELS 3 Xrotation Yrotation Zrotation
						End Site
						{
							OFFSET 0.000000 12.319262 0.000000
						}
					}
				}
				JOINT LeftPantLeg
				{
					OFFSET 0.918482 -16.533964 -2.284700
					CHANNELS 3 Xrotation Yrotation Zrotation
					End Site
					{
						OFFSET 0.350399 24.744368 0.000000
					}
				}
			}
		}
		JOINT RightUpLeg
		{
			OFFSET -8.479700 -4.795502 -0.379100
			CHANNELS 3 Xrotation Yrotation Zrotation
			JOINT RightLeg
			{
				OFFSET -0.023144 -32.555092 0.112900
				CHANNELS 3 Xrotation Yrotation Zrotation
				JOINT RightFoot
				{
					OFFSET 0.023144 -32.638641 -3.012700
					CHANNELS 3 Xrotation Yrotation Zrotation
					JOINT RightToeBase
					{
						OFFSET -0.970200 -13.225400 11.864200
						CHANNELS 3 Xrotation Yrotation Zrotation
						End Site
						{
							OFFSET 0.000000 12.319244 0.000000
						}
					}
					JOINT RFootTongue
					{
						OFFSET -1.142200 -1.059800 6.665200
						CHANNELS 3 Xrotation Yrotation Zrotation
						End Site
						{
							OFFSET 0.000000 12.319243 0.000000
						}
					}
				}
				JOINT RightPantLeg
				{
					OFFSET -0.919482 -16.533978 -2.284800
					CHANNELS 3 Xrotation Yrotation Zrotation
					End Site
					{
						OFFSET -0.350400 24.744419 0.000000
					}
				}
			}
		}
	}
	JOINT Spine
	{
		OFFSET 0.000000 7.722000 1.166200
		CHANNELS 3 Xrotation Yrotation Zrotation
		JOINT Spine1
		{
			OFFSET 0.000000 12.024101 0.248800
			CHANNELS 3 Xrotation Yrotation Zrotation
			JOINT Spine2
			{
				OFFSET 0.000000 11.502998 -0.491200
				CHANNELS 3 Xrotation Yrotation Zrotation
				JOINT Neck
				{
					OFFSET 0.000000 18.430702 -3.123100
					CHANNELS 3 Xrotation Yrotation Zrotation
					JOINT Head
					{
						OFFSET 0.000000 9.051102 1.034000
						CHANNELS 3 Xrotation Yrotation Zrotation
						JOINT HairB
						{
							OFFSET 0.208400 24.786102 24.822300
							CHANNELS 3 Xrotation Yrotation Zrotation
							End Site
							{
								OFFSET 0.000000 32.263779 0.000000
							}
						}
						JOINT HairA
						{
							OFFSET -7.081100 24.428299 23.196600
							CHANNELS 3 Xrotation Yrotation Zrotation
							End Site
							{
								OFFSET 0.000000 32.263779 0.000000
							}
						}
						JOINT Hat
						{
							OFFSET 16.728800 15.048294 -15.439601
							CHANNELS 3 Xrotation Yrotation Zrotation
							End Site
							{
								OFFSET 0.000000 32.263779 0.000000
							}
						}
					}
				}
				JOINT LeftShoulder
				{
					OFFSET 6.197800 13.665199 -4.064700
					CHANNELS 3 Xrotation Yrotation Zrotation
					JOINT LeftArm
					{
						OFFSET 7.778100 -0.187103 -1.709300
						CHANNELS 3 Xrotation Yrotation Zrotation
						JOINT LeftForeArm
						{
							OFFSET 22.049376 0.000000 0.000000
							CHANNELS 3 Xrotation Yrotation Zrotation
							JOINT LeftHand
							{
								OFFSET 23.009392 0.000000 0.000000
								CHANNELS 3 Xrotation Yrotation Zrotation
								JOINT LeftHandThumb1
								{
									OFFSET 3.507191 -2.063065 3.133727
									CHANNELS 3 Xrotation Yrotation Zrotation
									JOINT LeftHandThumb2
									{
										OFFSET 3.101337 -1.790558 1.790558
										CHANNELS 3 Xrotation Yrotation Zrotation
										JOINT LeftHandThumb3
										{
											OFFSET 3.058640 -1.765907 1.765906
											CHANNELS 3 Xrotation Yrotation Zrotation
											End Site
											{
												OFFSET -0.415260 3.926476 -0.049563
											}
										}
									}
								}
								JOINT LeftHandIndex1
								{
									OFFSET 11.334419 -0.901459 3.706815
									CHANNELS 3 Xrotation Yrotation Zrotation
									JOINT LeftHandIndex2
									{
										OFFSET 3.283112 0.000000 0.000000
										CHANNELS 3 Xrotation Yrotation Zrotation
										JOINT LeftHandIndex3
										{
											OFFSET 3.323853 0.000000 0.000000
											CHANNELS 3 Xrotation Yrotation Zrotation
											End Site
											{
												OFFSET -1.135597 3.097809 0.402452
											}
										}
									}
								}
								JOINT LeftHandMiddle1
								{
									OFFSET 11.335861 0.000000 0.000000
									CHANNELS 3 Xrotation Yrotation Zrotation
									JOINT LeftHandMiddle2
									{
										OFFSET 3.410492 0.000000 0.000000
										CHANNELS 3 Xrotation Yrotation Zrotation
										JOINT LeftHandMiddle3
										{
											OFFSET 3.312172 0.000000 0.000000
											CHANNELS 3 Xrotation Yrotation Zrotation
											End Site
											{
												OFFSET -1.150200 3.080154 0.400270
											}
										}
									}
								}
								JOINT LeftHandRing1
								{
									OFFSET 11.514786 -0.013176 -3.003090
									CHANNELS 3 Xrotation Yrotation Zrotation
									JOINT LeftHandRing2
									{
										OFFSET 3.053307 0.000000 0.000000
										CHANNELS 3 Xrotation Yrotation Zrotation
										JOINT LeftHandRing3
										{
											OFFSET 3.295807 0.000000 0.000000
											CHANNELS 3 Xrotation Yrotation Zrotation
											End Site
											{
												OFFSET -1.281006 3.013344 0.375733
											}
										}
									}
								}
								JOINT LeftHandPinky1
								{
									OFFSET 10.518692 -0.960396 -5.730441
									CHANNELS 3 Xrotation Yrotation Zrotation
									JOINT LeftHandPinky2
									{
										OFFSET 2.861649 0.000000 0.000000
										CHANNELS 3 Xrotation Yrotation Zrotation
										JOINT LeftHandPinky3
										{
											OFFSET 2.863380 0.000000 0.000000
											CHANNELS 3 Xrotation Yrotation Zrotation
											End Site
											{
												OFFSET -0.843597 2.711159 0.369971
											}
										}
									}
								}
							}
							JOINT LSleeve
							{
								OFFSET 6.676277 -0.344902 -1.011730
								CHANNELS 3 Xrotation Yrotation Zrotation
								End Site
								{
									OFFSET 0.000000 14.885353 0.000000
								}
							}
						}
					}
				}
				JOINT RightShoulder
				{
					OFFSET -6.197800 13.665199 -4.064700
					CHANNELS 3 Xrotation Yrotation Zrotation
					JOINT RightArm
					{
						OFFSET -7.778100 -0.187103 -1.709300
						CHANNELS 3 Xrotation Yrotation Zrotation
						JOINT RightForeArm
						{
							OFFSET -22.049376 0.000000 0.000000
							CHANNELS 3 Xrotation Yrotation Zrotation
							JOINT RightHand
							{
								OFFSET -23.009392 0.000000 0.000000
								CHANNELS 3 Xrotation Yrotation Zrotation
								JOINT RightHandThumb1
								{
									OFFSET -3.507191 -2.063065 3.133727
									CHANNELS 3 Xrotation Yrotation Zrotation
									JOINT RightHandThumb2
									{
										OFFSET -3.101337 -1.790558 1.790558
										CHANNELS 3 Xrotation Yrotation Zrotation
										JOINT RightHandThumb3
										{
											OFFSET -3.058640 -1.765907 1.765906
											CHANNELS 3 Xrotation Yrotation Zrotation
											End Site
											{
												OFFSET 0.415260 3.926476 -0.049563
											}
										}
									}
								}
								JOINT RightHandIndex1
								{
									OFFSET -11.334419 -0.901459 3.706815
									CHANNELS 3 Xrotation Yrotation Zrotation
									JOINT RightHandIndex2
									{
										OFFSET -3.283112 0.000000 0.000000
										CHANNELS 3 Xrotation Yrotation Zrotation
										JOINT RightHandIndex3
										{
											OFFSET -3.323853 0.000000 0.000000
											CHANNELS 3 Xrotation Yrotation Zrotation
											End Site
											{
												OFFSET 1.135597 3.097809 0.402452
											}
										}
									}
								}
								JOINT RightHandMiddle1
								{
									OFFSET -11.335861 0.000000 0.000000
									CHANNELS 3 Xrotation Yrotation Zrotation
									JOINT RightHandMiddle2
									{
										OFFSET -3.410492 0.000000 0.000000
										CHANNELS 3 Xrotation Yrotation Zrotation
										JOINT RightHandMiddle3
										{
											OFFSET -3.312172 0.000000 0.000000
											CHANNELS 3 Xrotation Yrotation Zrotation
											End Site
											{
												OFFSET 1.150200 3.080154 0.400270
											}
										}
									}
								}
								JOINT RightHandRing1
								{
									OFFSET -11.514786 -0.013176 -3.003090
									CHANNELS 3 Xrotation Yrotation Zrotation
									JOINT RightHandRing2
									{
										OFFSET -3.053307 0.000000 0.000000
										CHANNELS 3 Xrotation Yrotation Zrotation
										JOINT RightHandRing3
										{
											OFFSET -3.295807 0.000000 0.000000
											CHANNELS 3 Xrotation Yrotation Zrotation
											End Site
											{
												OFFSET 1.281006 3.013344 0.375733
											}
										}
									}
								}
								JOINT RightHandPinky1
								{
									OFFSET -10.518692 -0.960396 -5.730441
									CHANNELS 3 Xrotation Yrotation Zrotation
									JOINT RightHandPinky2
									{
										OFFSET -2.861649 0.000000 0.000000
										CHANNELS 3 Xrotation Yrotation Zrotation
										JOINT RightHandPinky3
										{
											OFFSET -2.863380 0.000000 0.000000
											CHANNELS 3 Xrotation Yrotation Zrotation
											End Site
											{
												OFFSET 0.843597 2.711159 0.369971
											}
										}
									}
								}
							}
							JOINT RSleeve
							{
								OFFSET -6.676277 -0.344902 -1.011730
								CHANNELS 3 Xrotation Yrotation Zrotation
								End Site
								{
									OFFSET 0.000000 14.885353 0.000000
								}
							}
						}
					}
				}
				JOINT Backpack
				{
					OFFSET 0.000000 -2.471497 36.677502
					CHANNELS 3 Xrotation Yrotation Zrotation
					End Site
					{
						OFFSET 0.000000 20.427315 0.000000
					}
				}
				JOINT Hood
				{
					OFFSET 0.000000 18.754097 -10.431000
					CHANNELS 3 Xrotation Yrotation Zrotation
					JOINT Hood1
					{
						OFFSET 0.000000 -5.011002 -7.685901
						CHANNELS 3 Xrotation Yrotation Zrotation
						End Site
						{
							OFFSET 0.000000 9.175140 0.000000
						}
					}
				}
				JOINT LHoodieString
				{
					OFFSET 5.250500 16.397697 3.089900
					CHANNELS 3 Xrotation Yrotation Zrotation
					JOINT LHoodieString1
					{
						OFFSET 0.257700 -6.364304 3.694600
						CHANNELS 3 Xrotation Yrotation Zrotation
						JOINT LHoodieString2
						{
							OFFSET 0.000000 -9.643799 2.679100
							CHANNELS 3 Xrotation Yrotation Zrotation
							End Site
							{
								OFFSET 0.000000 10.009018 0.000000
							}
						}
					}
				}
				JOINT RHoodieString
				{
					OFFSET -5.250500 16.397697 3.089900
					CHANNELS 3 Xrotation Yrotation Zrotation
					JOINT RHoodieString1
					{
						OFFSET -0.257700 -6.364304 3.694600
						CHANNELS 3 Xrotation Yrotation Zrotation
						JOINT RHoodieString2
						{
							OFFSET 0.000000 -9.643799 2.679100
							CHANNELS 3 Xrotation Yrotation Zrotation
							End Site
							{
								OFFSET 0.000000 10.009018 0.000000
							}
						}
					}
				}
			}
			JOINT LBackpack_Strap
			{
				OFFSET 15.223200 -7.719803 -6.610900
				CHANNELS 3 Xrotation Yrotation Zrotation
				End Site
				{
					OFFSET 0.000000 16.040596 0.000000
				}
			}
			JOINT RBackpack_Strap
			{
				OFFSET -15.223000 -7.719803 -6.610900
				CHANNELS 3 Xrotation Yrotation Zrotation
				End Site
				{
					OFFSET 0.000000 16.040596 0.000000
				}
			}
		}
	}
	JOINT BoyFacialAnim_Joint
	{
		OFFSET 1.000000 -82.208099 -1.550900
		CHANNELS 3 Xrotation Yrotation Zrotation
		End Site
		{
			OFFSET 0.000000 30.012791 0.000000
		}
	}
}
MOTION
Frames: 4
Frame Time: 0.016667
14.268635 76.494843 -18.805616 155.521959 -33.104687 160.814140 -0.000001 0.000000 -0.000000 -25.111839 33.310607 25.572534 26.542030 23.225959 -0.564487 -10.013986 11.722290 -26.860009 -0.000000 0.000000 0.000000 -0.000000 0.000000 -0.000000 0.000000 0.000001 0.000002 -58.254479 18.298085 12.828108 36.095064 -0.575319 2.686612 -3.618709 -5.992927 3.847979 0.000000 0.000002 0.000000 0.000000 0.000002 0.000000 0.000000 0.000003 -0.000000 36.400131 3.184254 8.815130 -9.351839 -3.570433 1.181058 -9.435596 -2.352112 2.017855 -12.226142 -7.455021 -5.693959 -19.356835 -12.917810 9.381452 -0.000001 0.000000 0.000000 -0.000001 0.000000 0.000000 -0.000001 0.000000 0.000000 5.744839 -10.522763 24.025841 -67.510601 -3.722624 -45.267987 1.348442 -68.597659 4.202959 -49.957308 9.172182 6.229507 17.551626 -5.699218 -12.932290 10.850503 26.127745 8.644826 0.000000 0.000001 0.000001 13.980901 1.201523 -55.004364 0.370813 1.161753 -65.441900 -0.000002 -0.000000 -0.000004 7.504745 1.174484 -63.778483 1.807812 1.475699 -64.567978 -0.000001 0.000000 -0.000002 8.574347 2.179078 -75.148986 -0.207670 1.009259 -57.855049 -0.000000 0.000001 -0.000002 10.030100 13.637031 -84.750237 0.877113 0.062298 -64.595490 -0.000001 0.000000 0.000002 0.000000 0.000001 0.000001 8.424594 8.375892 -5.507274 -1.238768 1.267732 68.329171 13.833028 26.209119 -4.662802 1.309583 4.198878 -0.028669 18.220810 -5.165851 -16.100675 -6.245484 -30.512501 3.865924 -0.000000 -0.000003 -0.000000 8.324415 -2.978355 13.360769 -2.420670 -1.364226 30.156474 -0.000000 0.000003 -0.000005 -0.657852 -4.404969 22.423730 0.269032 -5.521308 37.097250 -0.000002 0.000002 0.000000 -4.177270 -8.849780 22.910739 4.057587 -1.935993 44.316665 -0.000004 0.000001 0.000002 -16.086294 -11.774065 19.303190 10.677805 -2.614220 41.806324 -0.000003 -0.000001 0.000000 0.000002 -0.000001 -0.000001 -0.000001 -0.000001 -0.000000 -0.000001 -0.000001 -0.000000 -0.000001 -0.000001 -0.000000 -0.000001 -0.000001 -0.000000 -0.000001 -0.000001 -0.000000 -0.000001 -0.000000 0.000001 -0.000001 -0.000001 -0.000000 -0.000001 -0.000001 -0.000000 -0.000001 -0.000000 0.000001 0.000001 0.000001 0.000000 0.000001 0.000001 0.000000 -0.000001 0.000000 -0.000000 
14.219566 76.577370 -18.862249 155.674792 -33.299713 160.992832 -0.000000 0.000000 0.000000 -24.353528 33.328028 25.086148 25.782690 23.335691 -0.501965 -9.714604 11.690377 -26.769718 -0.000000 -0.000000 -0.000000 -0.000000 -0.000000 -0.000000 -0.000000 0.000001 0.000002 -57.792812 18.181716 12.557702 35.950731 -0.534721 2.682511 -3.658491 -5.882333 3.776192 0.000000 0.000001 0.000000 0.000000 0.000001 0.000000 -0.000000 0.000002 -0.000000 36.359556 3.215324 8.857568 -9.302403 -3.573412 1.240611 -9.386066 -2.346663 2.077848 -12.663935 -9.245403 -5.425664 -18.143124 -14.473886 9.482516 -0.000000 0.000000 -0.000000 -0.000000 0.000000 -0.000000 -0.000000 0.000000 -0.000000 5.600709 -10.392681 23.545696 -67.435031 -3.677407 -45.248156 1.632191 -68.445271 4.470467 -49.937139 9.068383 6.209549 17.551624 -5.699218 -12.932290 10.850504 26.127748 8.644831 0.000001 0.000000 0.000001 13.980900 1.201522 -55.004360 0.370813 1.161753 -65.441900 -0.000002 0.000001 -0.000003 7.504743 1.174483 -63.778490 1.807815 1.475698 -64.567978 -0.000000 0.000000 -0.000002 8.574345 2.179076 -75.148986 -0.207669 1.009260 -57.855056 -0.000001 -0.000000 0.000001 10.030098 13.637032 -84.750230 0.877114 0.062298 -64.595490 -0.000000 0.000000 -0.000000 0.000000 0.000001 0.000001 8.387671 8.109942 -5.631587 -1.325128 1.460308 68.468330 13.559633 26.271824 -4.380967 1.637687 4.236978 0.170617 18.207652 -5.153464 -16.107046 -6.281815 -30.420727 3.877068 -0.000000 -0.000002 -0.000001 8.217445 -2.911576 13.348505 -2.416341 -1.394023 30.239880 -0.000002 0.000001 -0.000001 -0.797122 -4.366875 22.488053 0.278298 -5.517110 37.121702 0.000002 -0.000001 0.000003 -4.248820 -8.728396 23.054474 4.015902 -2.019643 44.438898 -0.000000 -0.000001 0.000002 -16.404424 -11.839682 19.617960 10.678529 -2.615767 41.769766 -0.000002 0.000001 -0.000001 -0.000001 -0.000002 -0.000000 -0.000000 0.000001 0.000000 -0.000000 0.000001 0.000000 -0.000000 0.000001 0.000000 -0.000000 0.000001 0.000000 -0.000000 0.000001 0.000000 -0.000003 -0.000001 0.000001 -0.000000 0.000001 0.000000 -0.000000 0.000001 0.000000 -0.000003 -0.000001 0.000001 0.000002 -0.000003 0.000002 0.000002 -0.000003 0.000002 -0.000000 0.000000 0.000000 
14.179520 76.651039 -18.902702 155.802175 -33.486795 161.184418 -0.000002 -0.000003 0.000001 -23.644406 33.332068 24.584781 25.085418 23.437222 -0.444143 -9.440881 11.671734 -26.672447 -0.000000 0.000000 -0.000000 -0.000000 0.000000 -0.000000 -0.000001 -0.000001 -0.000004 -57.381860 18.066236 12.254772 35.887139 -1.610574 2.591945 -3.670847 -4.636011 3.885041 -0.000000 -0.000002 -0.000000 -0.000000 -0.000002 -0.000000 0.000000 0.000004 -0.000000 36.287084 3.236228 8.899086 -9.262707 -3.564026 1.268315 -9.346581 -2.337911 2.102953 -12.950600 -10.349953 -5.301791 -17.398334 -15.412050 9.443614 0.000000 -0.000000 0.000000 0.000000 -0.000000 0.000000 0.000000 -0.000000 0.000000 5.455871 -10.276588 23.062287 -67.354510 -3.637396 -45.228082 1.900073 -68.291687 4.724012 -49.919660 8.973174 6.196751 17.551633 -5.699219 -12.932287 10.850503 26.127748 8.644833 -0.000002 -0.000002 0.000000 13.980904 1.201520 -55.004360 0.370816 1.161752 -65.441900 -0.000000 -0.000001 -0.000002 7.504744 1.174483 -63.778490 1.807812 1.475698 -64.567971 -0.000001 0.000001 -0.000001 8.574351 2.179078 -75.148979 -0.207668 1.009259 -57.855056 -0.000001 0.000001 -0.000002 10.030100 13.637033 -84.750237 0.877114 0.062300 -64.595490 -0.000003 0.000000 -0.000002 0.000001 -0.000000 0.000000 8.353453 7.968170 -5.710308 -1.302546 1.649682 68.639248 13.413301 26.330432 -4.243886 1.725148 4.280986 0.377628 18.194483 -5.141170 -16.113448 -6.316144 -30.331610 3.889171 0.000001 -0.000001 -0.000000 8.114765 -2.847556 13.337012 -2.411864 -1.422812 30.319882 -0.000001 0.000000 0.000004 -0.930832 -4.330636 22.550027 0.287450 -5.512988 37.145151 -0.000003 0.000002 -0.000003 -4.318067 -8.612285 23.192544 3.976687 -2.100084 44.556227 -0.000003 0.000001 -0.000001 -16.709568 -11.906621 19.919996 10.679294 -2.617330 41.733176 -0.000004 0.000004 -0.000004 0.000002 -0.000001 -0.000001 -0.000002 0.000000 -0.000001 -0.000002 0.000000 -0.000001 -0.000002 0.000000 -0.000001 -0.000002 0.000000 -0.000001 -0.000002 0.000000 -0.000002 -0.000002 -0.000001 0.000000 -0.000002 0.000000 -0.000001 -0.000002 0.000000 -0.000002 -0.000002 -0.000001 0.000000 0.000002 -0.000000 0.000000 0.000002 -0.000000 0.000000 -0.000002 -0.000003 0.000001 
14.143658 76.720551 -18.935698 155.918343 -33.670432 161.381879 -0.000000 -0.000000 -0.000000 -22.956206 33.327911 24.076239 24.412351 23.535859 -0.387693 -9.178018 11.657775 -26.569823 -0.000000 0.000001 0.000000 -0.000000 0.000001 -0.000000 0.000000 0.000002 0.000002 -56.995033 17.943219 11.948095 35.780206 -1.413172 2.602502 -3.701425 -4.644421 3.803911 -0.000000 -0.000000 0.000000 -0.000000 -0.000000 0.000000 -0.000000 -0.000001 0.000000 36.200460 3.253458 8.939547 -9.227462 -3.548997 1.281481 -9.311690 -2.327706 2.112158 -13.170371 -11.140848 -5.245220 -16.873788 -16.069919 9.340676 -0.000000 0.000000 -0.000000 -0.000000 0.000000 -0.000000 -0.000000 0.000000 -0.000000 5.312896 -10.162606 22.584273 -67.273996 -3.603506 -45.213844 2.101683 -68.140426 4.908498 -49.904384 8.881459 6.194684 17.551628 -5.699217 -12.932289 10.850498 26.127746 8.644829 0.000001 -0.000000 0.000000 13.980899 1.201521 -55.004367 0.370817 1.161753 -65.441907 -0.000001 0.000000 -0.000002 7.504744 1.174482 -63.778490 1.807815 1.475699 -64.567978 -0.000000 -0.000001 0.000002 8.574346 2.179079 -75.148979 -0.207669 1.009260 -57.855049 -0.000000 -0.000001 -0.000001 10.030099 13.637032 -84.750230 0.877112 0.062299 -64.595490 -0.000000 0.000000 -0.000002 -0.000000 -0.000001 0.000001 8.320676 7.882603 -5.768237 -1.231547 1.837836 68.824005 13.324709 26.387471 -4.172546 1.703391 4.326787 0.587458 18.181272 -5.128786 -16.119865 -6.348239 -30.245536 3.902248 0.000001 -0.000003 0.000000 8.016908 -2.786413 13.326237 -2.407370 -1.450651 30.396200 -0.000001 -0.000000 0.000004 -1.058392 -4.296393 22.609354 0.296489 -5.508849 37.167595 0.000000 -0.000000 0.000003 -4.384623 -8.501923 23.324316 3.940062 -2.176944 44.668092 -0.000002 -0.000002 0.000004 -17.000370 -11.974075 20.208009 10.680037 -2.618839 41.696563 -0.000005 -0.000001 0.000004 0.000000 -0.000001 -0.000000 0.000001 0.000001 0.000000 0.000001 0.000001 0.000000 0.000001 0.000001 0.000000 0.000001 0.000001 0.000000 0.000001 0.000001 -0.000001 0.000001 0.000001 -0.000001 0.000001 0.000001 0.000000 0.000001 0.000001 -0.000001 0.000001 0.000001 -0.000001 -0.000000 -0.000000 0.000001 -0.000000 -0.000000 0.000001 -0.000000 -0.000000 -0.000000 
